<svg xmlns="http://www.w3.org/2000/svg" viewBox="0 0 263.4 163.09">
	<defs>
		<style>
			.cls-1,
			.cls-3 {
				fill: #fffcfb;
			}

			.cls-1 {
				stroke: #343236;
			}

			.cls-1,
			.cls-2,
			.cls-3,
			.cls-4 {
				stroke-miterlimit: 10;
				stroke-width: 2px;
			}

			.cls-2 {
				fill: #fff;
			}

			.cls-2,
			.cls-3,
			.cls-4 {
				stroke: #2e2c2f;
			}

			.cls-4 {
				fill: none;
			}
		</style>
	</defs>
	<title>Asset 1</title>
	<g id="Layer_2" data-name="Layer 2">
		<g id="Layer_1-2" data-name="Layer 1">
			<path class="cls-1"
				d="M96.93,85.91c-3.85-1.61-7.57-4.2-9.32-8a3.57,3.57,0,0,1,.75-.33c1.07-.31,2.16.28,3.26.44a2.4,2.4,0,0,0,2-.63A1.08,1.08,0,0,0,94,76.36c-.2-.86-1.41-1.58-1-2.31a17.79,17.79,0,0,0,5.18.7,1.81,1.81,0,0,0,.77-.12.93.93,0,0,0,.31-.23A1.56,1.56,0,0,0,99,72.21a5,5,0,0,0-2.66-.74,15.39,15.39,0,0,1-8.39-3.8A15.61,15.61,0,0,1,85,64.14c-.1-.16-.21-.31-.31-.46a9.71,9.71,0,0,1,1.22.21l5.6,1.37,0-.07h0a2.76,2.76,0,0,0-.46-3.52,14.94,14.94,0,0,0,5.35,1.21,1.38,1.38,0,0,0,1.16-.32h0l.07-.06c.52-.62-.23-1.53-1-1.83s-1.63-.57-1.84-1.3a1.82,1.82,0,0,0,1.52-.47c.45-.41.47-1.09-.25-1.75-1.12-1-3.48-.84-4.87-1.14a9.89,9.89,0,0,1-6-4c-.72-1-1.26-2.27-2-3.22C85.1,49,87.08,50,89,49.7l0-.06h.09c-.2-.9-.41-1.8-.61-2.71L91.66,48a2,2,0,0,0,1.89-.18.62.62,0,0,0,.21-.53c-.05-.77-1.37-1.23-1.12-1.9a1.25,1.25,0,0,0,1-.35.74.74,0,0,0,.19-.86c-.11-.28-.33-.27-.63-.39a4.88,4.88,0,0,1-.83-.4A5,5,0,0,1,91,42.11a1.34,1.34,0,0,0-.2-.21c-.46-.43-1.08-.25-1.66-.27a9.79,9.79,0,0,1-1.79-.18,4.73,4.73,0,0,1-2.9-1.63l0-.07a1,1,0,0,0,.82,0,.86.86,0,0,0,.26-.2c.39-.34.44-1,.81-1.4.68-.61,2.07-.34,2.59-.94a.7.7,0,0,0,.23-.38,1.08,1.08,0,0,0-.54-1.1,5.24,5.24,0,0,0-1.23-.48c-.23-.09-.49-.22-.52-.46s.25-.49.35-.75c.18-.46-.31-1-.81-1a9.79,9.79,0,0,0-1.53,0c-1.47,0-2.49-1.32-3.26-2.62a.41.41,0,0,0,.22,0,1,1,0,0,0,.43-.23c.19-.16.39-.34.58-.53a2,2,0,0,0,.79-1.89c-.23-.83-1.29-1.49-1-2.28a6.17,6.17,0,0,1,.39-.6,1.4,1.4,0,0,0-.11-1.38A6.09,6.09,0,0,0,82,22.47a9.17,9.17,0,0,1-1.8-2.67,5.25,5.25,0,0,0-.73-1.41,1,1,0,0,0-1.68-.09,1.84,1.84,0,0,0-.23.25,7.71,7.71,0,0,0-1.24,2.13,19.39,19.39,0,0,0-.67,2.37,9.34,9.34,0,0,1-1.85,4.36c-.35.37-.78.94-.42,1.31s1.3-.39,1.88-.09a1.06,1.06,0,0,1,.36.37l.73,1.06a14.8,14.8,0,0,1-1,1.3,3.71,3.71,0,0,1-.48.39c-1,.68-2.43.61-3.55,1.16a.9.9,0,0,0-.29.21.42.42,0,0,0-.15.22c-.09.36.38.56.73.68.69.24,1.36.94,1,1.59a1.07,1.07,0,0,1-.15.22c-.18.17-.4.3-.59.46l-.15.15A2,2,0,0,0,71.45,39a.88.88,0,0,0,.35.29c.74.28,1.27-1.13,2-.9.52.15.49.91.85,1.32a.91.91,0,0,0,.58.28,7.1,7.1,0,0,1-1.15,1.66L74,41.8a5.44,5.44,0,0,1-6,.66c-.45-.25-1.14-.47-1.41-.13a.42.42,0,0,0-.15.23c-.14.46.46.81.57,1.28a.62.62,0,0,1-.14.59,1.65,1.65,0,0,1-1.42.32c-.75-.19-1.53-.64-2.23-.32l0,0,0,0a1.33,1.33,0,0,0,.44,1.61,3.88,3.88,0,0,0,1.66.65l3,.67c.54.12,1.22.46,1.08,1a1.06,1.06,0,0,1-.29.45L68.9,49c-.22.21-.4.41-.3.67,1.06.81,2.53-1.6,3.63-.85.44.3.5,1,.92,1.28s.88.17,1.35-.13c-.19.28-.37.54-.56.77-1.59,1.91-2.33,4.51-4.09,6.26s-4.3,3-6.72,2.44a5.11,5.11,0,0,0-1.63-.27,1.29,1.29,0,0,0-.8.41.8.8,0,0,0-.3.74c.16,1,1.68.69,2.5,1.24a1.13,1.13,0,0,1-.31.73,3.88,3.88,0,0,1-1.72.78,3.26,3.26,0,0,0-1.5.8A1.09,1.09,0,0,0,59,65a48.24,48.24,0,0,0,7.94-.88c.66.39.13,1.51.55,2.16s1.67.22,2.31-.45a1.85,1.85,0,0,0,.14-.14,2.19,2.19,0,0,1,.21-.23c.62-.61,1.44-1.15,2.08-.66l.1.08a20.38,20.38,0,0,1-14.09,9.59,1.49,1.49,0,0,0-.81.38.44.44,0,0,0-.16.47.76.76,0,0,0,.44.38,5.39,5.39,0,0,0,3.73.21,1.59,1.59,0,0,1-.53,1.71,5.89,5.89,0,0,1-1,.78h0l-.11.07a7.65,7.65,0,0,0,5-.83,1.74,1.74,0,0,0,1.59,2.21A3.44,3.44,0,0,0,68.22,79a9.71,9.71,0,0,1,4.47-1.93c-1,.73-1.75,1.28-1.75,1.28a12,12,0,0,0-1.32,1.17c-.6.61-1.17,1.26-1.76,1.84-.06.07-.13.13-.2.2-1.18,1.13-2.38,2.23-3.64,3.28a39.32,39.32,0,0,1-3.76,2.79c-1.21.77-2.55,1.16-3.68,2l-.18.17c-.15.14-.28.32-.21.5.38,1,3.37.64,4.11-.18a.8.8,0,0,0,.15-.17c-.13,1,0,2.27.93,2.5a2.15,2.15,0,0,0,1.54-.5l3.68-2.42c.61.25.67,1.07.72,1.73s.39,1.49,1.05,1.43a1.45,1.45,0,0,0,.63-.32l2.44-1.81a1,1,0,0,1,.73-.27c.74.14.34,1.55,1,1.89a1,1,0,0,0,.81-.06,8.31,8.31,0,0,0,2.92-1.91l.37-.38c.24-.28.48-.57.74-.84a2.37,2.37,0,0,1,1.13-.7,2.76,2.76,0,0,1,2.66,1.4,12.38,12.38,0,0,0,1.89,2.56,2,2,0,0,0,2.62.09,1.3,1.3,0,0,0,.26-.31c.36-.61.22-1.48.69-2a1.51,1.51,0,0,1,1.7,0,16,16,0,0,1,1.42,1.19,4.22,4.22,0,0,0,5.41-.49,3.38,3.38,0,0,0,.5-.63c1,.82,2.33,1.67,3.44,1a1.8,1.8,0,0,0,.37-.3,2.42,2.42,0,0,0,0-3.05A7.58,7.58,0,0,0,96.93,85.91Z" />
			<path class="cls-1"
				d="M189.16,81.75c-3.85-1.61-7.57-4.2-9.32-8a3.91,3.91,0,0,1,.75-.34c1.06-.3,2.16.29,3.25.45a2.45,2.45,0,0,0,2-.63,1.08,1.08,0,0,0,.36-1.07c-.2-.86-1.41-1.58-1-2.31a17.79,17.79,0,0,0,5.18.7,1.84,1.84,0,0,0,.77-.13,1,1,0,0,0,.31-.22,1.56,1.56,0,0,0-.26-2.19,5,5,0,0,0-2.66-.74,15.36,15.36,0,0,1-8.39-3.8A15.83,15.83,0,0,1,177.19,60a4.63,4.63,0,0,0-.31-.46,7.76,7.76,0,0,1,1.22.21l5.6,1.37a.22.22,0,0,0,.05-.08h0a2.76,2.76,0,0,0-.46-3.52,15.38,15.38,0,0,0,5.34,1.21,1.4,1.4,0,0,0,1.17-.32h0l.06-.06c.53-.62-.22-1.53-1-1.84s-1.62-.56-1.83-1.29a1.85,1.85,0,0,0,1.52-.47c.45-.41.47-1.09-.25-1.75-1.12-1-3.48-.84-4.87-1.14a9.92,9.92,0,0,1-6.05-4c-.71-1-1.25-2.27-2-3.22,1.91.21,3.89,1.21,5.83.92v-.06h.09c-.21-.9-.41-1.8-.62-2.71l3.19,1.11a2,2,0,0,0,1.88-.18.62.62,0,0,0,.22-.53c-.05-.77-1.37-1.23-1.13-1.9a1.26,1.26,0,0,0,1-.35.74.74,0,0,0,.19-.86c-.11-.28-.34-.27-.64-.39a5.74,5.74,0,0,1-.83-.4,5.21,5.21,0,0,1-1.33-1.32,1.8,1.8,0,0,0-.19-.2c-.46-.43-1.09-.25-1.67-.27a9.59,9.59,0,0,1-1.78-.18,4.7,4.7,0,0,1-2.9-1.63l-.06-.07a1,1,0,0,0,.82,0,.9.9,0,0,0,.27-.2c.38-.34.44-1,.81-1.4.67-.62,2.07-.34,2.58-.94a.83.83,0,0,0,.24-.38,1.08,1.08,0,0,0-.55-1.1,5.66,5.66,0,0,0-1.22-.49c-.24-.08-.5-.22-.53-.46s.26-.48.36-.74c.18-.46-.31-.95-.81-1.05a11.2,11.2,0,0,0-1.53,0c-1.48-.05-2.49-1.33-3.27-2.62a.6.6,0,0,0,.22,0,.86.86,0,0,0,.43-.23,7.23,7.23,0,0,0,.59-.53,2,2,0,0,0,.78-1.89c-.22-.83-1.29-1.49-1-2.28a4.74,4.74,0,0,1,.39-.6,1.45,1.45,0,0,0-.11-1.38,6.14,6.14,0,0,0-1-1.09,8.94,8.94,0,0,1-1.79-2.67,5.55,5.55,0,0,0-.73-1.41,1,1,0,0,0-1.68-.09,2.89,2.89,0,0,0-.24.25,7.68,7.68,0,0,0-1.23,2.13,19.43,19.43,0,0,0-.68,2.37A9.24,9.24,0,0,1,166,23.24c-.35.38-.78,1-.43,1.32s1.3-.4,1.89-.09a1.16,1.16,0,0,1,.36.37l.72,1.06a16.33,16.33,0,0,1-1,1.3,3.48,3.48,0,0,1-.48.38c-1,.69-2.43.62-3.55,1.17a1.08,1.08,0,0,0-.3.21.4.4,0,0,0-.14.22c-.09.36.38.56.73.68.69.23,1.36.94,1.05,1.59a1.07,1.07,0,0,1-.15.22c-.18.17-.4.3-.59.46a1.06,1.06,0,0,0-.15.15,2,2,0,0,0-.23,2.57.76.76,0,0,0,.35.29c.73.28,1.27-1.13,2-.91.53.16.49.92.86,1.32a.88.88,0,0,0,.58.29,6.87,6.87,0,0,1-1.16,1.65l-.15.15a5.44,5.44,0,0,1-6,.66c-.44-.25-1.14-.47-1.4-.13a.5.5,0,0,0-.16.23c-.14.46.46.81.58,1.28a.65.65,0,0,1-.14.59,1.67,1.67,0,0,1-1.43.32c-.74-.19-1.53-.64-2.23-.32l0,0-.05,0a1.36,1.36,0,0,0,.44,1.61,3.92,3.92,0,0,0,1.67.65l3,.67c.53.12,1.21.46,1.08,1a1,1,0,0,1-.3.45l-.13.13c-.21.21-.4.41-.29.67,1.06.81,2.52-1.6,3.63-.85.44.3.5,1,.92,1.28s.88.17,1.35-.13c-.19.28-.37.54-.56.77-1.59,1.9-2.33,4.51-4.1,6.26s-4.3,3-6.72,2.44a5.11,5.11,0,0,0-1.63-.27,1.28,1.28,0,0,0-.8.4.84.84,0,0,0-.29.75c.15,1,1.68.69,2.49,1.24a1.12,1.12,0,0,1-.3.73,4,4,0,0,1-1.73.78,3.23,3.23,0,0,0-1.49.8,1.1,1.1,0,0,0-.38,1.08,48.24,48.24,0,0,0,7.95-.88c.66.39.13,1.51.55,2.16s1.66.22,2.31-.45l.13-.14.21-.23c.62-.61,1.44-1.15,2.09-.66l.09.08a20,20,0,0,1-2.93,3.79,20.55,20.55,0,0,1-11.15,5.8,1.46,1.46,0,0,0-.81.38.42.42,0,0,0-.16.47.73.73,0,0,0,.44.38,5.38,5.38,0,0,0,3.73.21,1.61,1.61,0,0,1-.53,1.71,6.42,6.42,0,0,1-1,.78h0l-.11.07a7.74,7.74,0,0,0,5.06-.83,1.74,1.74,0,0,0,1.58,2.21,3.34,3.34,0,0,0,1.78-.79,9.79,9.79,0,0,1,4.48-1.92l-1.75,1.28a12,12,0,0,0-1.32,1.17c-.6.6-1.18,1.26-1.76,1.84l-.2.2c-1.18,1.12-2.39,2.23-3.64,3.28a39.45,39.45,0,0,1-3.77,2.79c-1.2.77-2.55,1.16-3.67,2a1.45,1.45,0,0,0-.18.17c-.15.14-.28.32-.21.5.37,1,3.36.64,4.11-.18a1,1,0,0,0,.14-.17c-.12,1,0,2.27.94,2.49a2.06,2.06,0,0,0,1.53-.49l3.69-2.42c.61.25.67,1.07.72,1.73s.39,1.49,1,1.42a1.29,1.29,0,0,0,.63-.31l2.45-1.81a1,1,0,0,1,.72-.28c.75.15.35,1.56,1,1.9a1,1,0,0,0,.81-.06,8.32,8.32,0,0,0,2.91-1.91c.13-.12.25-.25.37-.38s.49-.58.75-.84a2.28,2.28,0,0,1,1.13-.7,2.77,2.77,0,0,1,2.66,1.4,12,12,0,0,0,1.89,2.56,2.07,2.07,0,0,0,2.62.09,1.26,1.26,0,0,0,.25-.31c.37-.61.23-1.48.7-2a1.47,1.47,0,0,1,1.69,0,14.66,14.66,0,0,1,1.42,1.19,4.21,4.21,0,0,0,5.41-.5,3.44,3.44,0,0,0,.51-.62c1,.82,2.32,1.67,3.43,1a1.57,1.57,0,0,0,.37-.3,2.4,2.4,0,0,0,0-3A7.38,7.38,0,0,0,189.16,81.75Z" />
			<path class="cls-2"
				d="M163.51,132.67a338.47,338.47,0,0,0-50.87-.61c-10.52.67-20.39,1.79-29.55,3.19,0-2.81-.09-5.84-.38-9.06-.17-1.91-.4-3.73-.65-5.47l-5-21,91.74.78" />
			<path class="cls-2"
				d="M229.29,146.12a70.32,70.32,0,0,0,1.55-23.35c-9.13-1.54-51-22.6-62.07-22.32-.5,1.53-4.71,21.69-5,23.74a33.56,33.56,0,0,0-.23,8.48c2.76.33,43.3,5.18,65.11,13.4,6.95,2.62,14.6,6,14.6,6,8.1,3.56,14.78,6.92,19.71,9.52" />
			<path class="cls-3"
				d="M153.39,118.93a248.07,248.07,0,0,1,52.46-87.24A199.77,199.77,0,0,1,229.51,72.9,200.38,200.38,0,0,1,243.76,125a419.5,419.5,0,0,0-90.37-6.11Z" />
			<path class="cls-2"
				d="M82.72,135.41a310.42,310.42,0,0,0-36.92,7.75c-9.93,2.72-19.06,5.77-27.36,8.9a118,118,0,0,1-3.28-13.87c-.66-3.78-1.09-7.34-1.36-10.65l66.84-11.09a49.38,49.38,0,0,1,2.08,19Z" />
			<path class="cls-3"
				d="M4.59,128.86A176.48,176.48,0,0,1,42.78,34.78a226.4,226.4,0,0,1,29.31,37.6,226.67,226.67,0,0,1,22.72,48.44,442.27,442.27,0,0,0-90.22,8Z" />
			<path class="cls-3"
				d="M72.8,106.38a289.92,289.92,0,0,1,55-104.8,263.22,263.22,0,0,1,30,45.51A264.4,264.4,0,0,1,180,106.38a379.55,379.55,0,0,0-107.2,0Z" />
			<path class="cls-4" d="M18.44,152.06S3.55,159.54.71,162.38" />
			<rect class="cls-2" x="118.63" y="115.38" width="10.43" height="16.04" />
			<polygon class="cls-2" points="197.92 138.03 190.74 136.75 191.94 125.98 199.11 126.78 197.92 138.03" />
			<polygon class="cls-2" points="52.9 140.8 45.54 142.54 44.37 131.55 51.55 130.6 52.9 140.8" />
		</g>
	</g>
</svg>