<svg xmlns="http://www.w3.org/2000/svg" viewBox="0 0 263.99 164.23"><defs><style>.cls-1{fill:none;}.cls-1,.cls-2{stroke:#fff;stroke-miterlimit:10;stroke-width:3px;}.cls-2{fill:#fff;}</style></defs><title>d3c-logo-white-think.inline</title><g id="Layer_2" data-name="Layer 2"><g id="Layer_1-2" data-name="Layer 1"><path class="cls-1" d="M97.28,86.7c-3.84-1.62-7.56-4.21-9.31-8a3.53,3.53,0,0,1,.74-.34c1.07-.3,2.17.29,3.26.45a2.45,2.45,0,0,0,2-.63,1.13,1.13,0,0,0,.36-1.07c-.21-.86-1.41-1.58-1-2.31a18.23,18.23,0,0,0,5.18.7,1.86,1.86,0,0,0,.78-.13.76.76,0,0,0,.3-.23A1.53,1.53,0,0,0,99.31,73a5,5,0,0,0-2.65-.74,15.36,15.36,0,0,1-8.39-3.8,15.83,15.83,0,0,1-3-3.53c-.1-.16-.2-.31-.31-.46a6.75,6.75,0,0,1,1.22.21l5.6,1.37a.56.56,0,0,0,0-.08h0a2.75,2.75,0,0,0-.45-3.52,15.38,15.38,0,0,0,5.34,1.21A1.4,1.4,0,0,0,98,63.35h0l.06-.06c.52-.62-.22-1.53-1-1.84s-1.62-.56-1.83-1.29a1.85,1.85,0,0,0,1.52-.47c.45-.41.47-1.09-.26-1.75-1.12-1-3.47-.84-4.87-1.14a9.93,9.93,0,0,1-6-4c-.71-1-1.26-2.27-2-3.22,1.92.21,3.9,1.21,5.84.92v-.06h.08c-.2-.9-.4-1.8-.61-2.71L92,48.82a2,2,0,0,0,1.89-.19.59.59,0,0,0,.22-.52c-.06-.77-1.37-1.23-1.13-1.9a1.21,1.21,0,0,0,1-.36.68.68,0,0,0,.23-.36.76.76,0,0,0,0-.49c-.11-.28-.33-.27-.63-.39a5.74,5.74,0,0,1-.83-.4,5.06,5.06,0,0,1-1.33-1.32,1.8,1.8,0,0,0-.19-.2c-.46-.43-1.09-.25-1.67-.27a9.59,9.59,0,0,1-1.78-.18,4.72,4.72,0,0,1-2.91-1.63l-.05-.08a.91.91,0,0,0,.82,0,.75.75,0,0,0,.26-.2c.39-.34.45-1,.81-1.4.68-.62,2.08-.34,2.59-.94a.73.73,0,0,0,.23-.39,1.06,1.06,0,0,0-.54-1.09,5.74,5.74,0,0,0-1.23-.49c-.23-.08-.49-.22-.52-.46s.25-.48.36-.74c.18-.46-.31-1-.81-1a11.17,11.17,0,0,0-1.53,0c-1.48-.05-2.5-1.33-3.27-2.62a.57.57,0,0,0,.22,0,.9.9,0,0,0,.43-.23,5.78,5.78,0,0,0,.58-.53,2,2,0,0,0,.79-1.89c-.23-.83-1.29-1.49-1-2.29a5.57,5.57,0,0,1,.4-.59,1.42,1.42,0,0,0-.12-1.38,6.09,6.09,0,0,0-.94-1.09,8.94,8.94,0,0,1-1.79-2.67,5.13,5.13,0,0,0-.74-1.41,1,1,0,0,0-1.67-.09,2.89,2.89,0,0,0-.24.25,7.68,7.68,0,0,0-1.23,2.13A17.8,17.8,0,0,0,76,23.84a9.35,9.35,0,0,1-1.84,4.35c-.35.38-.79.95-.43,1.32s1.3-.4,1.89-.09a1,1,0,0,1,.35.37l.73,1.06a13,13,0,0,1-1,1.29,2.5,2.5,0,0,1-.47.39c-1,.69-2.43.62-3.56,1.17a1.19,1.19,0,0,0-.29.21.48.48,0,0,0-.15.22c-.08.35.39.56.74.68.68.23,1.36.94,1.05,1.59a1.07,1.07,0,0,1-.15.22c-.18.17-.41.3-.59.46l-.16.15a2,2,0,0,0-.22,2.57.76.76,0,0,0,.35.29c.73.28,1.27-1.13,2-.91.53.16.49.92.85,1.32a1,1,0,0,0,.59.29,7.07,7.07,0,0,1-1.16,1.65l-.15.14a5.43,5.43,0,0,1-6,.67c-.45-.25-1.14-.47-1.4-.13a.44.44,0,0,0-.16.23c-.14.46.46.81.58,1.28a.62.62,0,0,1-.15.59,1.64,1.64,0,0,1-1.42.32c-.74-.19-1.53-.64-2.23-.32a.08.08,0,0,0,0,.05l0,0a1.35,1.35,0,0,0,.44,1.61,3.92,3.92,0,0,0,1.67.65l3,.67c.54.12,1.22.46,1.09,1a1.19,1.19,0,0,1-.3.45l-.13.13c-.21.21-.4.41-.29.66,1.06.82,2.52-1.59,3.63-.84.43.3.5,1,.92,1.28s.88.17,1.35-.13c-.19.28-.37.54-.56.77C72.7,53.43,72,56,70.2,57.79s-4.3,3-6.72,2.44A5.11,5.11,0,0,0,61.85,60a1.28,1.28,0,0,0-.8.4.87.87,0,0,0-.3.75c.16,1,1.69.69,2.5,1.24a1.12,1.12,0,0,1-.3.73,4.09,4.09,0,0,1-1.73.78,3.23,3.23,0,0,0-1.49.8,1.08,1.08,0,0,0-.38,1.08,48.24,48.24,0,0,0,7.95-.88c.66.39.13,1.51.55,2.16s1.66.22,2.31-.45l.13-.14.21-.23c.62-.61,1.44-1.15,2.09-.66l.09.08a19.64,19.64,0,0,1-2.94,3.79,20.55,20.55,0,0,1-11.15,5.8,1.46,1.46,0,0,0-.8.38.4.4,0,0,0-.16.47.71.71,0,0,0,.43.38,5.41,5.41,0,0,0,3.74.21,1.62,1.62,0,0,1-.54,1.71,5.49,5.49,0,0,1-1,.77h0l-.11.07a7.75,7.75,0,0,0,5.06-.83,1.73,1.73,0,0,0,1.58,2.21,3.34,3.34,0,0,0,1.78-.79,9.79,9.79,0,0,1,4.48-1.92L71.3,79.16A12.11,12.11,0,0,0,70,80.33c-.6.6-1.17,1.26-1.75,1.84l-.2.19c-1.18,1.13-2.39,2.24-3.65,3.29a37.6,37.6,0,0,1-3.76,2.78c-1.2.78-2.55,1.17-3.67,2a1.45,1.45,0,0,0-.18.17c-.16.14-.28.32-.21.5.37,1,3.36.64,4.11-.18a2.09,2.09,0,0,0,.14-.17c-.13,1,0,2.27.94,2.49a2.08,2.08,0,0,0,1.53-.49L67,90.36c.61.25.68,1.07.72,1.73s.4,1.49,1,1.42a1.29,1.29,0,0,0,.63-.31l2.44-1.81a1,1,0,0,1,.73-.28c.74.15.35,1.56,1,1.9a1.07,1.07,0,0,0,.82-.06A8.32,8.32,0,0,0,77.27,91c.13-.12.25-.25.37-.38s.48-.58.74-.84a2.35,2.35,0,0,1,1.14-.7,2.78,2.78,0,0,1,2.66,1.39,11.85,11.85,0,0,0,1.89,2.57,2.07,2.07,0,0,0,2.62.09,1.26,1.26,0,0,0,.25-.31c.36-.61.22-1.48.69-2a1.47,1.47,0,0,1,1.7,0A17.76,17.76,0,0,1,90.75,92a4.21,4.21,0,0,0,5.41-.49,3.44,3.44,0,0,0,.51-.62c1,.82,2.32,1.67,3.43,1a2.2,2.2,0,0,0,.37-.3,2.41,2.41,0,0,0,0-3A7.36,7.36,0,0,0,97.28,86.7Z"/><path class="cls-1" d="M189.51,82.54c-3.85-1.62-7.57-4.21-9.32-8a3.6,3.6,0,0,1,.75-.34c1.07-.3,2.16.28,3.26.45a2.44,2.44,0,0,0,2-.63,1.08,1.08,0,0,0,.36-1.07c-.2-.86-1.41-1.58-1-2.31a18.13,18.13,0,0,0,5.18.7,2,2,0,0,0,.77-.13.72.72,0,0,0,.31-.23,1.56,1.56,0,0,0-.26-2.19,5.1,5.1,0,0,0-2.66-.73,15.39,15.39,0,0,1-8.39-3.8,15.78,15.78,0,0,1-2.94-3.53c-.1-.16-.21-.31-.31-.46a7.07,7.07,0,0,1,1.22.21l5.6,1.37a.56.56,0,0,0,.05-.08h0a2.76,2.76,0,0,0-.46-3.52A15.38,15.38,0,0,0,189,59.51a1.39,1.39,0,0,0,1.16-.32h0a.46.46,0,0,0,.07-.07c.52-.61-.23-1.52-1-1.83s-1.63-.57-1.84-1.3a1.82,1.82,0,0,0,1.52-.46c.45-.42.47-1.09-.25-1.75-1.12-1-3.48-.84-4.87-1.14a9.9,9.9,0,0,1-6-4c-.72-1-1.26-2.27-2.05-3.22,1.92.21,3.9,1.21,5.84.92l0-.06h.09c-.2-.9-.41-1.81-.61-2.71l3.18,1.11a2,2,0,0,0,1.89-.19.59.59,0,0,0,.21-.52c-.05-.77-1.37-1.23-1.13-1.9a1.23,1.23,0,0,0,1-.36.68.68,0,0,0,.23-.36.83.83,0,0,0,0-.49c-.11-.28-.33-.28-.63-.39a4.23,4.23,0,0,1-2.16-1.72l-.2-.2c-.46-.43-1.08-.25-1.67-.27a9.77,9.77,0,0,1-1.78-.18,4.73,4.73,0,0,1-2.9-1.63.35.35,0,0,1-.05-.08.91.91,0,0,0,.82,0,.86.86,0,0,0,.26-.2c.39-.34.44-1,.81-1.4.68-.62,2.07-.35,2.59-.94a.73.73,0,0,0,.23-.39,1.06,1.06,0,0,0-.54-1.09,5.74,5.74,0,0,0-1.23-.49c-.23-.08-.49-.22-.52-.46s.25-.48.35-.74c.18-.47-.31-.95-.81-1.05a11.2,11.2,0,0,0-1.53,0c-1.48-.05-2.49-1.33-3.26-2.62a.54.54,0,0,0,.22,0,1,1,0,0,0,.43-.23c.19-.16.39-.34.58-.53a2,2,0,0,0,.79-1.89c-.23-.83-1.29-1.49-1-2.29.09-.22.28-.39.39-.6a1.4,1.4,0,0,0-.11-1.37,5.76,5.76,0,0,0-.95-1.09,9.34,9.34,0,0,1-1.79-2.67A5.39,5.39,0,0,0,172,15a1,1,0,0,0-1.68-.1,1.94,1.94,0,0,0-.23.26,7.47,7.47,0,0,0-1.24,2.13,19.24,19.24,0,0,0-.67,2.36A9.25,9.25,0,0,1,166.33,24c-.35.38-.78.95-.42,1.32s1.29-.4,1.88-.09a1.06,1.06,0,0,1,.36.37l.72,1.06a12.94,12.94,0,0,1-1,1.29,2.56,2.56,0,0,1-.48.39c-1,.69-2.43.62-3.55,1.17a.78.78,0,0,0-.29.21.42.42,0,0,0-.15.22c-.09.35.38.56.73.68.69.23,1.36.94,1.05,1.58a.91.91,0,0,1-.15.23c-.18.16-.4.3-.59.46l-.15.15a2,2,0,0,0-.23,2.57.82.82,0,0,0,.35.29c.74.28,1.27-1.13,2-.91.52.16.49.92.85,1.32a.92.92,0,0,0,.58.29,7,7,0,0,1-1.15,1.65,1.07,1.07,0,0,1-.16.14,5.41,5.41,0,0,1-6,.66c-.45-.24-1.14-.46-1.41-.12a.42.42,0,0,0-.15.23c-.14.46.46.81.57,1.27a.63.63,0,0,1-.14.6,1.65,1.65,0,0,1-1.42.32c-.75-.19-1.53-.64-2.23-.32l0,0,0,0a1.33,1.33,0,0,0,.44,1.61,3.83,3.83,0,0,0,1.66.65l3,.67c.54.12,1.22.46,1.08,1a1.06,1.06,0,0,1-.29.45.8.8,0,0,0-.13.13c-.22.21-.4.41-.3.66,1.06.82,2.53-1.59,3.63-.84.44.29.5.95.92,1.27s.88.18,1.35-.12c-.19.27-.37.54-.56.77-1.59,1.9-2.33,4.51-4.09,6.26s-4.3,3-6.72,2.44a5.16,5.16,0,0,0-1.63-.27,1.28,1.28,0,0,0-.8.4.82.82,0,0,0-.3.75c.16,1,1.68.68,2.5,1.24a1.13,1.13,0,0,1-.31.73,4,4,0,0,1-1.72.78,3.17,3.17,0,0,0-1.5.8,1.07,1.07,0,0,0-.37,1.08,47.2,47.2,0,0,0,7.94-.89c.66.4.13,1.52.55,2.17s1.67.22,2.31-.45l.14-.15.21-.22c.61-.61,1.44-1.16,2.08-.66a.39.39,0,0,1,.1.08A20.79,20.79,0,0,1,162,65.25a20.55,20.55,0,0,1-11.15,5.8,1.49,1.49,0,0,0-.81.38.43.43,0,0,0-.16.47.76.76,0,0,0,.44.38,5.39,5.39,0,0,0,3.73.21,1.59,1.59,0,0,1-.53,1.7,5.43,5.43,0,0,1-1,.78h0a.41.41,0,0,0-.11.07,7.71,7.71,0,0,0,5.05-.83A1.75,1.75,0,0,0,159,76.43a3.4,3.4,0,0,0,1.79-.79,9.75,9.75,0,0,1,4.47-1.92L163.52,75a11.06,11.06,0,0,0-1.32,1.17c-.6.6-1.17,1.25-1.76,1.84l-.2.19c-1.18,1.13-2.38,2.24-3.64,3.29a37.6,37.6,0,0,1-3.76,2.78c-1.21.78-2.56,1.17-3.68,2a1.41,1.41,0,0,0-.18.17c-.15.14-.28.32-.21.5.38,1,3.37.64,4.11-.18a.7.7,0,0,0,.14-.17c-.12,1,0,2.27.94,2.49a2.1,2.1,0,0,0,1.54-.49l3.68-2.42c.61.25.67,1.07.72,1.73s.39,1.49,1,1.42a1.3,1.3,0,0,0,.62-.31L164,87.23a1,1,0,0,1,.73-.28c.74.15.34,1.56,1,1.9a1,1,0,0,0,.81-.06,8.45,8.45,0,0,0,2.92-1.91c.12-.12.25-.25.36-.38.25-.28.49-.58.75-.85a2.53,2.53,0,0,1,1.13-.7,2.79,2.79,0,0,1,2.66,1.4,12.18,12.18,0,0,0,1.89,2.57,2.07,2.07,0,0,0,2.62.09,1.3,1.3,0,0,0,.26-.31c.36-.61.22-1.48.69-2a1.49,1.49,0,0,1,1.7,0A17.76,17.76,0,0,1,183,87.88a4.21,4.21,0,0,0,5.41-.49,3.31,3.31,0,0,0,.5-.62c1,.81,2.33,1.66,3.43,1a1.42,1.42,0,0,0,.37-.31,2.4,2.4,0,0,0,0-3A7.48,7.48,0,0,0,189.51,82.54Z"/><path class="cls-1" d="M163.86,133.46a338.36,338.36,0,0,0-50.86-.61c-10.53.67-20.4,1.79-29.55,3.19,0-2.81-.1-5.84-.39-9.06q-.25-2.87-.65-5.47l-5-21.05,91.74.77"/><path class="cls-1" d="M229.64,146.91a69.62,69.62,0,0,0,1.55-23.35c-9.12-1.54-51-22.6-62.07-22.33-.5,1.53-4.71,21.7-5,23.75a34,34,0,0,0-.23,8.48c2.76.32,43.3,5.17,65.11,13.4,6.95,2.62,14.61,6,14.61,6,8.09,3.56,14.78,6.91,19.71,9.51"/><path class="cls-2" d="M153.74,119.71a247.95,247.95,0,0,1,52.47-87.23,200.18,200.18,0,0,1,37.91,93.35,420.41,420.41,0,0,0-90.38-6.12Z"/><path class="cls-1" d="M83.08,136.2a311.43,311.43,0,0,0-36.92,7.74c-9.94,2.73-19.07,5.77-27.37,8.91A120,120,0,0,1,15.51,139c-.65-3.78-1.08-7.34-1.35-10.65L81,117.23a49.46,49.46,0,0,1,2.08,19Z"/><path class="cls-2" d="M4.94,129.65A176.69,176.69,0,0,1,43.13,35.57a226.93,226.93,0,0,1,29.32,37.6,227.43,227.43,0,0,1,22.72,48.44,442.28,442.28,0,0,0-90.23,8Z"/><path class="cls-2" d="M73.16,107.17a289.68,289.68,0,0,1,55-104.81,263.75,263.75,0,0,1,30,45.52,263.42,263.42,0,0,1,22.23,59.29,378.49,378.49,0,0,0-107.19,0Z"/><path class="cls-1" d="M18.79,152.85S3.9,160.33,1.06,163.17"/><rect class="cls-1" x="118.98" y="116.17" width="10.43" height="16.04"/><polygon class="cls-1" points="198.28 138.81 191.09 137.54 192.29 126.77 199.46 127.56 198.28 138.81"/><polygon class="cls-1" points="53.25 141.59 45.89 143.33 44.73 132.33 51.9 131.38 53.25 141.59"/></g></g></svg>