<svg xmlns="http://www.w3.org/2000/svg" viewBox="0 0 470.71 470.71"><defs><style>.cls-1{fill:#399c47;}.cls-2{fill:none;}.cls-2,.cls-3{stroke:#fff;stroke-miterlimit:10;stroke-width:3px;}.cls-3{fill:#fff;}</style></defs><title>favicon_1</title><g id="Layer_2" data-name="Layer 2"><g id="Layer_1-2" data-name="Layer 1"><circle class="cls-1" cx="235.35" cy="235.35" r="235.35"/><path class="cls-2" d="M183.47,217.89c-5.68-2.38-11.17-6.21-13.76-11.75a5.37,5.37,0,0,1,1.1-.49c1.58-.45,3.2.41,4.82.66a3.58,3.58,0,0,0,3-.94,1.6,1.6,0,0,0,.53-1.57c-.3-1.27-2.08-2.34-1.52-3.41a26.67,26.67,0,0,0,7.64,1,2.74,2.74,0,0,0,1.14-.19,1.43,1.43,0,0,0,.46-.33,2.32,2.32,0,0,0-.39-3.24c-1.08-.86-2.55-.92-3.92-1.08A22.73,22.73,0,0,1,170.15,191a23.15,23.15,0,0,1-4.34-5.22c-.15-.23-.3-.45-.46-.67a11.66,11.66,0,0,1,1.8.31l8.27,2a.41.41,0,0,0,.07-.11h0a4.07,4.07,0,0,0-.68-5.19,22.6,22.6,0,0,0,7.89,1.78,2.07,2.07,0,0,0,1.72-.48h0l.1-.09c.77-.91-.33-2.25-1.43-2.71s-2.4-.84-2.71-1.91a2.69,2.69,0,0,0,2.24-.69c.66-.61.7-1.61-.37-2.58-1.65-1.51-5.14-1.25-7.19-1.69a14.59,14.59,0,0,1-8.92-5.9c-1.05-1.54-1.85-3.35-3-4.75,2.83.31,5.75,1.79,8.62,1.36l0-.09.12,0-.9-4,4.7,1.63c.91.32,2.27.33,2.78-.27a.89.89,0,0,0,.32-.77c-.08-1.15-2-1.82-1.66-2.81a1.83,1.83,0,0,0,1.4-.53,1.12,1.12,0,0,0,.35-.53,1.19,1.19,0,0,0-.06-.72c-.17-.43-.5-.41-.94-.58a9.9,9.9,0,0,1-1.23-.59,7.73,7.73,0,0,1-2-2,4,4,0,0,0-.28-.3c-.68-.63-1.6-.37-2.47-.39a16.63,16.63,0,0,1-2.63-.27,7,7,0,0,1-4.28-2.41,1,1,0,0,1-.08-.11,1.36,1.36,0,0,0,1.21.06,1.31,1.31,0,0,0,.39-.3c.57-.51.66-1.48,1.2-2.07,1-.91,3.05-.51,3.81-1.38a1.08,1.08,0,0,0,.35-.58,1.59,1.59,0,0,0-.8-1.61,8.14,8.14,0,0,0-1.81-.72c-.35-.12-.73-.32-.78-.68s.38-.71.53-1.09c.27-.69-.46-1.41-1.2-1.55a15.55,15.55,0,0,0-2.26,0c-2.18-.07-3.67-2-4.81-3.86a.86.86,0,0,0,.32.05,1.38,1.38,0,0,0,.64-.34c.28-.24.58-.5.85-.78a3,3,0,0,0,1.17-2.79c-.34-1.23-1.91-2.2-1.43-3.37a8.47,8.47,0,0,1,.58-.89,2.11,2.11,0,0,0-.17-2,9.18,9.18,0,0,0-1.39-1.6,13.37,13.37,0,0,1-2.65-4,7.91,7.91,0,0,0-1.08-2.08,1.47,1.47,0,0,0-2.48-.14,4.33,4.33,0,0,0-.34.38,11.1,11.1,0,0,0-1.82,3.14,26.69,26.69,0,0,0-1,3.49c-.55,2.26-1.09,4.69-2.72,6.44-.52.55-1.16,1.39-.63,1.94.68.7,1.91-.59,2.78-.14a1.59,1.59,0,0,1,.53.56l1.07,1.56a23.69,23.69,0,0,1-1.53,1.91,5.45,5.45,0,0,1-.7.57c-1.54,1-3.59.91-5.25,1.73a1.1,1.1,0,0,0-.43.31.6.6,0,0,0-.22.32c-.13.52.57.82,1.08,1,1,.35,2,1.39,1.55,2.34a1.19,1.19,0,0,1-.22.33c-.26.25-.59.45-.87.68l-.23.22a3,3,0,0,0-.33,3.79,1.17,1.17,0,0,0,.52.44c1.08.41,1.87-1.68,3-1.34.78.23.73,1.35,1.26,2a1.36,1.36,0,0,0,.87.42,10.77,10.77,0,0,1-1.71,2.44l-.23.21a8,8,0,0,1-8.86,1c-.66-.36-1.68-.68-2.08-.18a.57.57,0,0,0-.22.33c-.21.68.67,1.2.85,1.89a1,1,0,0,1-.22.88,2.45,2.45,0,0,1-2.1.46c-1.1-.28-2.25-.94-3.29-.47a.2.2,0,0,1,0,.08l-.06,0a2,2,0,0,0,.65,2.37,5.64,5.64,0,0,0,2.45,1l4.49,1c.79.17,1.8.67,1.6,1.46a1.48,1.48,0,0,1-.44.66l-.19.19c-.32.31-.59.61-.43,1,1.56,1.21,3.72-2.35,5.35-1.25.65.44.74,1.41,1.36,1.89s1.3.26,2-.19a13.45,13.45,0,0,1-.83,1.14c-2.35,2.81-3.44,6.66-6,9.24s-6.34,4.41-9.92,3.6a7.43,7.43,0,0,0-2.41-.4,1.92,1.92,0,0,0-1.18.6,1.23,1.23,0,0,0-.43,1.1c.23,1.44,2.48,1,3.68,1.83a1.58,1.58,0,0,1-.45,1.07,5.8,5.8,0,0,1-2.55,1.16,4.81,4.81,0,0,0-2.2,1.18,1.6,1.6,0,0,0-.55,1.59,70,70,0,0,0,11.72-1.3c1,.58.19,2.24.82,3.2.73,1.13,2.45.32,3.4-.68a1.89,1.89,0,0,0,.2-.2l.31-.33c.92-.91,2.13-1.71,3.08-1a.53.53,0,0,1,.14.12,29.39,29.39,0,0,1-4.34,5.59,30.34,30.34,0,0,1-16.45,8.57,2.13,2.13,0,0,0-1.19.55.63.63,0,0,0-.24.7,1.05,1.05,0,0,0,.65.55,7.93,7.93,0,0,0,5.51.32,2.36,2.36,0,0,1-.79,2.51,8,8,0,0,1-1.54,1.15h.06l-.16.1a11.32,11.32,0,0,0,7.46-1.22,2.57,2.57,0,0,0,2.33,3.27,5,5,0,0,0,2.64-1.17,14.55,14.55,0,0,1,6.6-2.84l-2.58,1.9a16.45,16.45,0,0,0-2,1.72c-.89.89-1.74,1.85-2.6,2.72l-.29.28c-1.75,1.67-3.52,3.31-5.38,4.85a56.82,56.82,0,0,1-5.55,4.11c-1.78,1.14-3.77,1.72-5.43,3a2,2,0,0,0-.26.25.71.71,0,0,0-.31.74c.55,1.46,5,.94,6.06-.27a1.13,1.13,0,0,0,.21-.24c-.18,1.47,0,3.34,1.39,3.67a3,3,0,0,0,2.26-.73l5.44-3.57c.9.37,1,1.58,1.06,2.56s.58,2.2,1.54,2.1a2,2,0,0,0,.93-.46l3.61-2.68a1.46,1.46,0,0,1,1.08-.4c1.09.21.5,2.29,1.5,2.79a1.52,1.52,0,0,0,1.21-.09,12.15,12.15,0,0,0,4.3-2.81q.27-.27.54-.57c.36-.4.72-.84,1.1-1.24a3.54,3.54,0,0,1,1.67-1c1.53-.36,3,.78,3.93,2.06s1.57,2.8,2.79,3.79,2.93,1.1,3.87.13a2,2,0,0,0,.37-.45c.54-.91.33-2.19,1-3a2.2,2.2,0,0,1,2.51,0,21.41,21.41,0,0,1,2.09,1.74,6.23,6.23,0,0,0,8-.72,5.13,5.13,0,0,0,.74-.93c1.46,1.21,3.44,2.46,5.07,1.52a2.37,2.37,0,0,0,.55-.44c1.11-1.09,1-3.22-.06-4.5C187,219.27,185.15,218.6,183.47,217.89Z"/><path class="cls-2" d="M319.59,211.75c-5.67-2.38-11.17-6.21-13.75-11.75a5.18,5.18,0,0,1,1.1-.5c1.58-.45,3.19.42,4.81.67a3.59,3.59,0,0,0,3-.94,1.63,1.63,0,0,0,.53-1.58c-.3-1.27-2.08-2.33-1.53-3.41a26.4,26.4,0,0,0,7.65,1,2.91,2.91,0,0,0,1.14-.19,1.28,1.28,0,0,0,.45-.34c.85-.76.58-2.46-.38-3.23s-2.56-.93-3.92-1.08a22.84,22.84,0,0,1-12.39-5.61,23.2,23.2,0,0,1-4.35-5.22c-.14-.23-.29-.45-.45-.67a11.66,11.66,0,0,1,1.8.31l8.27,2,.07-.11h0A4.07,4.07,0,0,0,311,176a22.54,22.54,0,0,0,7.88,1.78,2.1,2.1,0,0,0,1.73-.48v0a.38.38,0,0,0,.09-.09c.78-.9-.33-2.24-1.43-2.7s-2.39-.84-2.7-1.92a2.67,2.67,0,0,0,2.24-.68c.66-.61.69-1.61-.37-2.58-1.66-1.51-5.14-1.25-7.19-1.69a14.58,14.58,0,0,1-8.92-5.91c-1.06-1.53-1.86-3.34-3-4.75,2.83.32,5.75,1.8,8.61,1.37l0-.09.13,0-.9-4,4.69,1.63c.92.32,2.27.34,2.79-.27a.9.9,0,0,0,.32-.77c-.08-1.14-2-1.82-1.67-2.8a1.85,1.85,0,0,0,1.41-.53,1.11,1.11,0,0,0,.34-.53,1.15,1.15,0,0,0-.06-.73c-.16-.42-.49-.4-.93-.58a7.3,7.3,0,0,1-1.23-.59,7.53,7.53,0,0,1-2-1.94,4,4,0,0,0-.28-.3c-.68-.63-1.61-.37-2.47-.4a15.52,15.52,0,0,1-2.63-.26,7,7,0,0,1-4.28-2.41.76.76,0,0,1-.08-.11,1.33,1.33,0,0,0,1.21,0,1.24,1.24,0,0,0,.39-.29c.57-.51.65-1.48,1.19-2.07,1-.91,3.06-.51,3.82-1.39a1.13,1.13,0,0,0,.35-.57,1.6,1.6,0,0,0-.8-1.62,8.19,8.19,0,0,0-1.82-.71c-.34-.12-.73-.32-.77-.68s.38-.71.53-1.09c.26-.69-.46-1.41-1.2-1.55a15.55,15.55,0,0,0-2.26,0c-2.18-.07-3.68-2-4.82-3.87a.76.76,0,0,0,.33,0,1.24,1.24,0,0,0,.63-.33,10.44,10.44,0,0,0,.86-.78,3,3,0,0,0,1.16-2.79c-.33-1.23-1.9-2.2-1.42-3.38a9.52,9.52,0,0,1,.58-.88,2.11,2.11,0,0,0-.17-2,8.57,8.57,0,0,0-1.4-1.61,13.49,13.49,0,0,1-2.64-3.94,7.91,7.91,0,0,0-1.08-2.08,1.47,1.47,0,0,0-2.48-.14,4.38,4.38,0,0,0-.35.38,11.6,11.6,0,0,0-1.82,3.14,27.8,27.8,0,0,0-1,3.49c-.55,2.26-1.1,4.68-2.73,6.43-.51.56-1.15,1.4-.63,2,.69.7,1.92-.59,2.79-.14a1.64,1.64,0,0,1,.53.55l1.07,1.57a21.9,21.9,0,0,1-1.53,1.9,4.39,4.39,0,0,1-.71.58c-1.53,1-3.58.91-5.24,1.72a1.35,1.35,0,0,0-.43.31.61.61,0,0,0-.22.33c-.13.52.56.82,1.08,1,1,.34,2,1.39,1.55,2.34a1.46,1.46,0,0,1-.22.33c-.26.25-.59.44-.87.68a2.39,2.39,0,0,0-.23.22,3,3,0,0,0-.33,3.79,1.21,1.21,0,0,0,.51.44c1.09.41,1.88-1.68,3-1.34.78.23.73,1.35,1.26,1.94a1.32,1.32,0,0,0,.86.43,11.06,11.06,0,0,1-1.7,2.44l-.23.2a8,8,0,0,1-8.86,1c-.67-.36-1.69-.69-2.08-.18a.64.64,0,0,0-.23.33c-.2.68.68,1.2.85,1.89a1,1,0,0,1-.21.88,2.46,2.46,0,0,1-2.1.46c-1.1-.28-2.26-.94-3.29-.47l0,.08-.07,0a2,2,0,0,0,.65,2.37,5.76,5.76,0,0,0,2.46,1l4.49,1c.79.17,1.79.67,1.59,1.46a1.6,1.6,0,0,1-.43.66,1.7,1.7,0,0,0-.19.19c-.32.31-.6.61-.44,1,1.57,1.21,3.73-2.36,5.36-1.25.65.44.74,1.41,1.36,1.89s1.3.25,2-.19c-.28.41-.55.8-.83,1.14-2.35,2.81-3.44,6.66-6,9.23s-6.35,4.42-9.92,3.61a7.47,7.47,0,0,0-2.41-.4,1.92,1.92,0,0,0-1.18.6,1.24,1.24,0,0,0-.44,1.1c.24,1.44,2.49,1,3.69,1.83a1.58,1.58,0,0,1-.45,1.07,5.8,5.8,0,0,1-2.55,1.16,4.76,4.76,0,0,0-2.2,1.18,1.58,1.58,0,0,0-.56,1.59,70,70,0,0,0,11.73-1.3c1,.58.19,2.24.81,3.2.74,1.13,2.46.32,3.41-.68l.2-.21.31-.33c.91-.9,2.13-1.7,3.08-1l.14.13a30.14,30.14,0,0,1-20.8,14.16,2.07,2.07,0,0,0-1.18.55.61.61,0,0,0-.24.7,1.07,1.07,0,0,0,.64.55,7.93,7.93,0,0,0,5.51.32,2.36,2.36,0,0,1-.78,2.51,8.34,8.34,0,0,1-1.54,1.15H265l-.17.1a11.36,11.36,0,0,0,7.47-1.22,2.56,2.56,0,0,0,2.33,3.26,4.92,4.92,0,0,0,2.63-1.16,14.48,14.48,0,0,1,6.61-2.84l-2.59,1.89a17.39,17.39,0,0,0-2,1.73c-.88.89-1.73,1.85-2.59,2.71l-.29.29c-1.75,1.67-3.53,3.3-5.38,4.85a58.63,58.63,0,0,1-5.56,4.11c-1.77,1.14-3.76,1.72-5.42,3a3.08,3.08,0,0,0-.27.25.72.72,0,0,0-.31.74c.56,1.45,5,.94,6.07-.27a2.25,2.25,0,0,0,.21-.24c-.18,1.47,0,3.34,1.38,3.67a3.07,3.07,0,0,0,2.27-.73l5.44-3.57c.89.37,1,1.58,1.06,2.55s.58,2.21,1.54,2.11a2.09,2.09,0,0,0,.93-.46l3.61-2.68a1.51,1.51,0,0,1,1.07-.41c1.1.22.51,2.3,1.51,2.8a1.49,1.49,0,0,0,1.2-.09,12.19,12.19,0,0,0,4.3-2.81c.19-.18.37-.37.55-.57.36-.4.71-.85,1.1-1.24a3.49,3.49,0,0,1,1.67-1c1.52-.36,3,.78,3.92,2.06s1.57,2.79,2.79,3.78,2.94,1.11,3.87.14a1.9,1.9,0,0,0,.38-.46c.53-.9.32-2.18,1-2.94a2.2,2.2,0,0,1,2.5,0,21.88,21.88,0,0,1,2.1,1.75,6.22,6.22,0,0,0,8-.73,4.74,4.74,0,0,0,.74-.92c1.46,1.21,3.43,2.46,5.07,1.52a2,2,0,0,0,.54-.45c1.12-1.08,1-3.21-.05-4.5S321.28,212.46,319.59,211.75Z"/><path class="cls-2" d="M281.74,286.91a498.24,498.24,0,0,0-75.08-.9c-15.53,1-30.11,2.64-43.62,4.71,0-4.15-.14-8.62-.57-13.38-.25-2.81-.58-5.5-1-8.06l-7.42-31.08,135.41,1.15"/><path class="cls-2" d="M378.83,306.77a103.4,103.4,0,0,0,2.28-34.48c-13.46-2.26-75.33-33.35-91.61-32.94-.74,2.25-6.95,32-7.42,35a49.67,49.67,0,0,0-.34,12.52c4.07.48,63.91,7.64,96.1,19.78,10.26,3.87,21.56,8.84,21.56,8.84,11.94,5.26,21.81,10.21,29.09,14"/><path class="cls-3" d="M266.8,266.62a365.8,365.8,0,0,1,77.44-128.76,295.51,295.51,0,0,1,56,137.79,619.79,619.79,0,0,0-133.4-9Z"/><path class="cls-2" d="M162.5,291A453.37,453.37,0,0,0,108,302.39c-14.66,4-28.14,8.51-40.39,13.14a174.74,174.74,0,0,1-4.84-20.48c-1-5.57-1.6-10.83-2-15.71L159.42,263a73,73,0,0,1,2.77,12.67A74,74,0,0,1,162.5,291Z"/><path class="cls-3" d="M47.17,281.28a260.6,260.6,0,0,1,56.37-138.86,335,335,0,0,1,43.27,55.5,334.9,334.9,0,0,1,33.53,71.5A654.44,654.44,0,0,0,47.17,281.28Z"/><path class="cls-3" d="M147.85,248.11A428.19,428.19,0,0,1,229,93.41a388.86,388.86,0,0,1,44.28,67.18,389.7,389.7,0,0,1,32.8,87.52,559.06,559.06,0,0,0-158.22,0Z"/><path class="cls-2" d="M67.61,315.53s-22,11-26.17,15.23"/><rect class="cls-2" x="215.49" y="261.39" width="15.39" height="23.67"/><polygon class="cls-2" points="332.53 294.81 321.93 292.94 323.7 277.03 334.28 278.21 332.53 294.81"/><polygon class="cls-2" points="118.47 298.9 107.61 301.48 105.89 285.25 116.48 283.85 118.47 298.9"/></g></g></svg>